# xmcd
#
# Track frame offsets: 
#        150
#        21830
#        42566
#        64085
#        85850
#        106549
#        130082
#        155185
#        173989
#        199521
#        220119
#        242636
#        263675
#
# Disc length: 3799 seconds
#
# Revision: 1
# Processed by: cddbd v1.5.2PL0 Copyright (c) Steve Scherf et al.
# Submitted via: ExactAudioCopyFreeDBPlugin 1.0
#
DISCID=ac0ed50d
DTITLE=群星 - DTSES国乐飘香
DYEAR=2009
DGENRE=DTS ES
TTITLE0=回心转意
TTITLE1=知道不知道
TTITLE2=寂寞沙洲冷
TTITLE3=亲爱的你怎么不在我身边
TTITLE4=下辈子如果我还记得你
TTITLE5=红颜
TTITLE6=下沙
TTITLE7=思念谁
TTITLE8=那一天
TTITLE9=童话
TTITLE10=美丽的心情
TTITLE11=我是真的难过
TTITLE12=当爱情经过的时候
EXTD=
EXTT0=
EXTT1=
EXTT2=
EXTT3=
EXTT4=
EXTT5=
EXTT6=
EXTT7=
EXTT8=
EXTT9=
EXTT10=
EXTT11=
EXTT12=
PLAYORDER=
